# xmcd
#
# Track frame offsets: 
#        150
#        1940
#        5525
#        13548
#        29065
#        41488
#        49886
#        57599
#        59375
#        63639
#        71239
#        84409
#        97713
#        107372
#        113156
#        114927
#        118700
#        124744
#        143142
#        152144
#        161658
#        170468
#        174192
#        188189
#        203314
#        216076
#        229330
#        232209
#        243663
#        253538
#        262092
#        271000
#        285580
#        289772
#        300407
#        316332
#        327575
#
# Disc length: 4633 seconds
#
# Revision: 0
# Processed by: cddbd v1.5.2PL0 Copyright (c) Steve Scherf et al.
# Submitted via: ExactAudioCopy v1.3
#
DISCID=0e121725
DTITLE=Lefty Frizzell - CD12_Transcriptions
DYEAR=2018
DGENRE=Country
TTITLE0=Intro "Country Music Time #5"
TTITLE1=If You've Got The Money
TTITLE2=Look What Thoughts Will Do
TTITLE3=Shine, Shave, Shower (It's Saturday)
TTITLE4=I Want To Be With You Always
TTITLE5=My Baby's Just Like Money
TTITLE6=If You've Got The Money
TTITLE7=Intro "Country Music Time #9"
TTITLE8=If You've Got The Money
TTITLE9=Why Should I Be Lonely
TTITLE10=Ida Red Boogie
TTITLE11=I Love You A Thousand Ways
TTITLE12=Always Late
TTITLE13=If You've Got The Money
TTITLE14=Intro "Country Music Time #14"
TTITLE15=If You've Got The Money
TTITLE16=Sunday Down In Tennessee
TTITLE17=King Without A Queen
TTITLE18=Mom And Dad's Waltz
TTITLE19=Travelin' Blues
TTITLE20=If You've Got The Money
TTITLE21=Intro "Country Music Time #144"
TTITLE22=Cigarettes And Coffee Blues
TTITLE23=The Long Black Veil
TTITLE24=Freddie Hart - Chain Gang
TTITLE25=Desert Blues
TTITLE26=Intro "Country Music Time #296"
TTITLE27=Cigarettes And Coffee Blues
TTITLE28=(Darling) Let's Turn Back The Years
TTITLE29=Things
TTITLE30=Woodchopper's Ball
TTITLE31=I Want To Be With You Always
TTITLE32=Stay All Night, Stay A Little Longer (Intro "Country Style US
TTITLE32=A #237)
TTITLE33=Somebody's Pushin'
TTITLE34=The Long Black Veil
TTITLE35=David Frizzell - Mona Lisa
TTITLE36=I Want To Be With You Always
EXTD=
EXTT0=
EXTT1=
EXTT2=
EXTT3=
EXTT4=
EXTT5=
EXTT6=
EXTT7=
EXTT8=
EXTT9=
EXTT10=
EXTT11=
EXTT12=
EXTT13=
EXTT14=
EXTT15=
EXTT16=
EXTT17=
EXTT18=
EXTT19=
EXTT20=
EXTT21=
EXTT22=
EXTT23=
EXTT24=
EXTT25=
EXTT26=
EXTT27=
EXTT28=
EXTT29=
EXTT30=
EXTT31=
EXTT32=
EXTT33=
EXTT34=
EXTT35=
EXTT36=
PLAYORDER=
